<?xml version="1.0"?>
<svg xmlns="http://www.w3.org/2000/svg" xmlns:xlink="http://www.w3.org/1999/xlink" xmlns:svgjs="http://svgjs.com/svgjs" version="1.1" width="512" height="512" x="0" y="0" viewBox="0 0 512 512" style="enable-background:new 0 0 512 512" xml:space="preserve"><g><g xmlns="http://www.w3.org/2000/svg"><g><path d="m247.07 222.938c-4.793 4.979-10.773 7.663-16.864 7.523-5.786-.121-11.203-2.711-15.258-7.292-2.744-3.101-7.484-3.392-10.585-.646-3.102 2.745-3.391 7.484-.646 10.586 6.86 7.752 16.155 12.137 26.175 12.347.247.005.494.008.741.008 10.051 0 19.699-4.287 27.244-12.124 2.873-2.984 2.782-7.731-.202-10.604s-7.734-2.782-10.605.202z" fill="#0a4997" data-original="#000000" style=""/><path d="m384.954 466.595h15.845c10.137 0 18.384-8.247 18.384-18.384v-17.926h17.954c10.137 0 18.384-8.247 18.384-18.384v-15.874c0-10.137-8.247-18.384-18.384-18.384h-17.954v-17.926c0-10.137-8.247-18.384-18.384-18.384h-15.845c-10.137 0-18.384 8.247-18.384 18.384v17.926h-17.954c-10.137 0-18.384 8.247-18.384 18.384v15.874c0 10.137 8.247 18.384 18.384 18.384h17.954v17.926c0 10.137 8.247 18.384 18.384 18.384zm-36.338-51.309c-1.835 0-3.385-1.55-3.385-3.385v-15.874c0-1.835 1.55-3.385 3.385-3.385h25.454c4.142 0 7.5-3.358 7.5-7.5v-25.426c0-1.866 1.518-3.385 3.385-3.385h15.845c1.866 0 3.385 1.518 3.385 3.385v25.426c0 4.142 3.357 7.5 7.5 7.5h25.454c1.835 0 3.385 1.55 3.385 3.385v15.874c0 1.835-1.55 3.385-3.385 3.385h-25.454c-4.142 0-7.5 3.358-7.5 7.5v25.425c0 1.867-1.518 3.385-3.385 3.385h-15.845c-1.866 0-3.385-1.518-3.385-3.385v-25.425c0-4.142-3.357-7.5-7.5-7.5z" fill="#0a4997" data-original="#000000" style=""/><path d="m488.262 353.311c-1.94-3.658-6.481-5.05-10.14-3.109s-5.05 6.481-3.109 10.14c24.036 45.295 6.751 101.706-38.531 125.748-21.934 11.646-47.09 14.055-70.834 6.784-10.135-3.104-19.486-7.826-27.792-13.91-.16-.122-.323-.239-.492-.348-10.936-8.122-20.019-18.642-26.597-31.03-11.657-21.944-14.069-47.109-6.794-70.86 7.274-23.746 23.361-43.238 45.296-54.885 35.49-18.834 78.821-12.869 107.828 14.841 3.215 3.073 8.452 2.722 11.204-.953 2.304-3.077 1.732-7.446-1.055-10.094-32.488-30.872-80.327-38.337-120.578-19.257-19.667-7.116-55.214-16.474-55.459-16.574-.001-.031-.001-17.19-.002-25.033 24.378-17.991 43.67-44.282 51.313-70.388 22.042-2.25 36.98-16.26 36.98-35.491v-10.772c0-4.435-1.169-8.598-3.203-12.203v-43.438c0-44.546-36.112-80.658-80.658-80.658h-13.953c-15.329-7.563-32.567-11.821-50.784-11.821s-35.455 4.258-50.784 11.82h-13.955c-44.545 0-80.656 36.111-80.656 80.656v43.441c-2.034 3.605-3.203 7.767-3.203 12.203v10.771c0 19.231 14.938 33.241 36.98 35.491 7.643 26.103 26.932 52.391 51.313 70.385 0 7.841-.001 25.006-.002 25.036-.26.106-.667.248-1.277.403-18.368 4.711-37.878 9.915-56.801 17.143-3.821 1.459-6.002 5.706-4.654 9.568 1.087 3.113 3.995 5.035 7.084 5.035.892 0 1.799-.16 2.681-.498 18.094-6.931 37.038-11.999 54.91-16.587 6.751 25.923 30.358 45.116 58.364 45.116 28.007 0 51.614-19.193 58.365-45.116 13.753 3.541 27.262 7.138 40.479 11.477-19.089 13.693-33.116 33.142-40.114 55.987-8.45 27.582-5.648 56.807 7.888 82.288 4.448 8.377 9.887 16.014 16.157 22.799h-203.732v-42.754c0-4.107-3.165-7.688-7.27-7.81-4.247-.127-7.729 3.278-7.729 7.496v43.068s-66.136-.019-66.689-.05c-1.181-.066-2.042-1.16-1.818-2.321.002-.01.004-.019.006-.029l15.902-81.381c4.646-23.815 19.443-42.783 45.23-57.98 3.518-2.073 4.988-6.596 3.038-10.184-2.035-3.744-6.746-5.031-10.389-2.893-29.447 17.282-47.144 40.222-52.599 68.183l-15.905 81.387c-.454 2.336-1.836 9.447 2.522 14.732 4.045 4.907 10.664 5.536 15.979 5.536h300.631c9.17 6.416 19.39 11.425 30.401 14.797 10.449 3.2 21.128 4.785 31.754 4.785 17.418 0 34.685-4.262 50.507-12.663 52.584-27.92 72.657-93.427 44.746-146.026zm-123.761-205.191v10.771c0 11.075-8.51 17.446-18.83 19.781.269-2.581.411-5.143.411-7.677v-32.637l.06-.025 8.795.025c5.185 0 9.564 4.471 9.564 9.762zm-3.203-55.641v31.727c-2.03-.549-4.161-.847-6.361-.847h-8.855v-8.175c0-35.039-15.731-66.469-40.496-87.612 31.503 4.805 55.712 32.081 55.712 64.907zm-129.811-77.478c55.281.318 99.596 46.001 99.596 101.282v10.544l-26.209 16.917c-5.604-9.605-16.014-16.078-27.913-16.078-15.242 0-28.046 10.597-31.44 24.802h-29.239c-3.394-14.205-16.198-24.802-31.441-24.802-11.899 0-22.309 6.472-27.913 16.077l-26.208-16.916v-11.644c.001-55.437 45.259-100.501 100.767-100.182zm62.776 144.968c0 10.212-8.862 18.389-19.288 17.219-7.932-.89-14.342-7.3-15.232-15.232-1.17-10.426 7.006-19.29 17.218-19.29 8.282 0 15.215 5.852 16.902 13.636.015.088.041.175.059.263.222 1.102.341 2.239.341 3.404zm-92.202 1.986c-.89 7.932-7.301 14.343-15.233 15.233-10.426 1.17-19.288-7.007-19.288-17.219 0-1.16.119-2.293.338-3.389.02-.095.047-.189.063-.284 1.69-7.781 8.621-13.629 16.9-13.629 10.212-.001 18.39 8.862 17.22 19.288zm-104.758-3.063v-10.772c0-5.292 4.38-9.763 9.564-9.763h8.855v32.637c0 2.534.142 5.096.411 7.677-10.32-2.334-18.83-8.704-18.83-19.779zm18.419-43.709v8.175h-8.855c-2.2 0-4.331.297-6.361.847v-31.726c0-32.825 24.21-60.1 55.711-64.907-24.764 21.143-40.495 52.572-40.495 87.611zm160.486 174.494c0 24.72-19.899 44.879-44.52 45.301-25.347.434-46.093-20.751-46.093-46.103v-14.492c5.117 2.816 10.373 5.264 15.732 7.252 10.888 4.009 20.286 5.876 29.574 5.876s18.685-1.867 29.594-5.882c5.352-1.986 10.602-4.431 15.713-7.243zm-20.912-22.118c-9.178 3.379-16.93 4.952-24.394 4.952s-15.216-1.574-24.375-4.946c-40.383-14.983-75.806-60.109-75.806-96.571v-26.314l21.85 14.104c-.014.394-.03.788-.03 1.185 0 17.827 14.49 32.33 32.301 32.33 15.245 0 28.05-10.609 31.443-24.831h29.235c3.392 14.221 16.197 24.831 31.442 24.831 17.81 0 32.301-14.503 32.301-32.33 0-.397-.016-.791-.03-1.185l21.851-14.104v26.315c-.001 36.461-35.424 81.587-75.788 96.564z" fill="#0a4997" data-original="#000000" style=""/><path d="m208.589 64.982c15.223-4.228 29.405-4.227 44.625 0 .671.187 1.347.275 2.011.275 3.285 0 6.3-2.175 7.222-5.495 1.108-3.991-1.228-8.125-5.219-9.233-17.961-4.988-34.693-4.988-52.652 0-3.991 1.108-6.328 5.242-5.219 9.233 1.108 3.991 5.242 6.329 9.232 5.22z" fill="#0a4997" data-original="#000000" style=""/><path d="m182.85 94.717c32.781-9.091 63.32-9.092 96.105 0 .67.186 1.345.275 2.008.275 3.286 0 6.302-2.177 7.223-5.497 1.106-3.991-1.231-8.124-5.223-9.231-35.517-9.851-68.602-9.851-104.12 0-3.992 1.107-6.33 5.239-5.223 9.231 1.105 3.99 5.239 6.33 9.23 5.222z" fill="#0a4997" data-original="#000000" style=""/></g></g></g></svg>
